<svg width="200" height="200" viewBox="0 0 100 100" xmlns="http://www.w3.org/2000/svg">
  <!-- Círculo externo do relógio -->
  <circle cx="50" cy="50" r="48" fill="white" stroke="black" stroke-width="2"/>

  <!-- Traços de movimento -->
  <path d="M 50 50 m -40 -10 q 40 -10 40 -40 q -40 10 -40 40" stroke="gray" stroke-width="1" fill="none"/>
  <path d="M 50 50 m -30 -20 q 30 -10 30 -30 q -30 10 -30 30" stroke="gray" stroke-width="1" fill="none"/>
  <path d="M 50 50 m -20 -30 q 20 -10 20 -20 q -20 10 -20 20" stroke="gray" stroke-width="1" fill="none"/>

  <!-- Marcas das horas -->
  <g id="hourMarks">
    <line x1="50" y1="5" x2="50" y2="10" stroke="black" stroke-width="2"/>
    <line x1="50" y1="90" x2="50" y2="95" stroke="black" stroke-width="2"/>
    <line x1="5" y1="50" x2="10" y2="50" stroke="black" stroke-width="2"/>
    <line x1="90" y1="50" x2="95" y2="50" stroke="black" stroke-width="2"/>
  </g>

  <!-- Ponteiros do relógio -->
  <line id="hourHand" x1="50" y1="50" x2="50" y2="30" stroke="black" stroke-width="3"/>
  <line id="minuteHand" x1="50" y1="50" x2="50" y2="20" stroke="black" stroke-width="2"/>
  <line id="secondHand" x1="50" y1="50" x2="50" y2="10" stroke="red" stroke-width="1"/>

  <!-- Centro do relógio -->
  <circle cx="50" cy="50" r="2" fill="black"/>
</svg>
